inDegrees=yes
name=ik_S49_A06_T02
DataType=double
version=3
OpenSimVersion=4.3-2021-08-27-4bc7ad9
endheader
time	pelvis_tilt	pelvis_list	pelvis_rotation	pelvis_tx	pelvis_ty	pelvis_tz	hip_flexion_r	hip_adduction_r	hip_rotation_r	knee_angle_r	knee_angle_r_beta	ankle_angle_r	subtalar_angle_r	mtp_angle_r	hip_flexion_l	hip_adduction_l	hip_rotation_l	knee_angle_l	knee_angle_l_beta	ankle_angle_l	subtalar_angle_l	mtp_angle_l	lumbar_extension	lumbar_bending	lumbar_rotation	arm_flex_r	arm_add_r	arm_rot_r	elbow_flex_r	pro_sup_r	wrist_flex_r	wrist_dev_r	arm_flex_l	arm_add_l	arm_rot_l	elbow_flex_l	pro_sup_l	wrist_flex_l	wrist_dev_l
7.539999999999927	-8.849680323533473	-2.246201932710635	23.75473721171014	0	0.9399999999999999	0	42.80666324641537	-11.15618905413771	-10.82918796895006	53.53938757307765	0.9344385926515411	0	0	0	42.80666324641537	-11.15618905413771	-10.82918796895006	53.53938757307765	0.9344385926515411	0	0	0	-8.225688362706983	-0.04658185590556346	1.345191685673954	37.10079940767793	-2.714068384199432	4.703631498360258	41.0431285471884	116.8355600723426	0	0	75.88993884389021	-15.98595318180922	3.822448084740501	27.38154292362107	98.37702387365789	0	0
7.559999999999927	-8.993174657041669	-2.18520228060855	23.38761723027287	0	0.9399999999999999	0	42.80725732993277	-11.15509423742001	-10.82868476205712	53.53965218523889	0.9344432110049957	0	0	0	42.80725732993277	-11.15509423742001	-10.82868476205712	53.53965218523889	0.9344432110049957	0	0	0	-8.335011801486207	0.07279154041683371	1.315436631986662	37.38190020893488	-2.561842393172044	4.941435633712964	41.03313623822572	116.8533971566598	0	0	76.4675552936027	-15.16352607917874	4.226057238982572	27.60008938064062	98.29681448569023	0	0
7.579999999999926	-9.098185385584443	-2.145026580311568	23.04211747973428	0	0.9399999999999999	0	42.81608542817533	-11.1434346391214	-10.8226289724965	53.54470385026579	0.9345313791924229	0	0	0	42.81608542817533	-11.1434346391214	-10.8226289724965	53.54470385026579	0.9345313791924229	0	0	0	-8.419156333523095	0.1500734187733522	1.343201369142061	37.63804974322979	-2.34695125688187	5.085657540438475	40.89612551407431	116.992655443939	0	0	77.49425726388424	-13.21365427996021	5.423940766570338	26.93738670866223	97.953031875976	0	0
7.599999999999926	-9.22396970204214	-2.092719493082279	22.721562584002	0	0.9399999999999999	0	42.81672005153634	-11.14227274002896	-10.8220932833185	53.54498663081171	0.9345363146440097	0	0	0	42.81672005153634	-11.14227274002896	-10.8220932833185	53.54498663081171	0.9345363146440097	0	0	0	-8.515223651337822	0.2452723378082535	1.362262252057641	37.92125868974164	-2.144957585343708	5.168056558340712	40.80869393102679	117.1967742973198	0	0	78.03499144629664	-12.20541661728124	5.875302092624842	26.99385124457923	97.85560891367388	0	0
7.619999999999925	-9.367059590143469	-2.046697337401888	22.39351158971226	0	0.9399999999999999	0	42.81741060816003	-11.1410089081494	-10.82151045078567	53.54529425171128	0.9345416836415552	0	0	0	42.81741060816003	-11.1410089081494	-10.82151045078567	53.54529425171128	0.9345416836415552	0	0	0	-8.630311071475106	0.3404990585082173	1.383007017686247	38.26000287644443	-1.919450390832558	5.213678039266425	40.65608614696478	117.5473181141735	0	0	78.62115309792695	-11.15592745690494	6.314787007969976	26.8788128093507	97.79175721683465	0	0
7.639999999999925	-9.499370555251575	-1.992424088391646	22.05994430997023	0	0.9399999999999999	0	42.81826564604319	-11.1394444641307	-10.82078881595322	53.54567496414752	0.9345483283270708	0	0	0	42.81826564604319	-11.1394444641307	-10.82078881595322	53.54567496414752	0.9345483283270708	0	0	0	-8.734253133871672	0.4456677715961528	1.363941718054	38.56317010947571	-1.622884024639997	5.306387081877156	40.47444771231969	117.9245746530586	0	0	79.25201364946325	-10.36399571529711	6.610762988382262	26.02742562893586	97.65290810188242	0	0
7.659999999999925	-9.638692955594744	-1.952003287805025	21.69163182777097	0	0.9399999999999999	0	42.81892751223266	-11.13823559899789	-10.82023078526931	53.5459699475606	0.9345534767588679	0	0	0	42.81892751223266	-11.13823559899789	-10.82023078526931	53.5459699475606	0.9345534767588679	0	0	0	-8.848918791315581	0.532173207591886	1.388029131050906	38.86458352383463	-1.329635521987661	5.365544897312178	40.34938319863378	118.2667701233542	0	0	79.75440786195993	-9.176310607263359	7.051056194355295	26.35582252280341	98.15499501326653	0	0
7.679999999999924	-9.783832814324128	-1.903503152905656	21.42281831577655	0	0.9399999999999999	0	42.81942371493061	-11.13733685423633	-10.81981468877332	53.54619272704092	0.9345573649943053	0	0	0	42.81942371493061	-11.13733685423633	-10.81981468877332	53.54619272704092	0.9345573649943053	0	0	0	-8.97008741471609	0.6494017491133639	1.288381425516631	39.16338286771788	-1.065367497519104	5.47888220843867	40.23560186985993	118.6176711744266	0	0	79.9301549977216	-9.472688429575712	6.71634069340119	26.34359465892015	98.18288637796141	0	0
7.699999999999924	-9.85707328582043	-1.885448465401896	21.17046596912499	0	0.9399999999999999	0	42.82006306524806	-11.13617105558727	-10.81927611627086	53.54647781516724	0.9345623407207679	0	0	0	42.82006306524806	-11.13617105558727	-10.81927611627086	53.54647781516724	0.9345623407207679	0	0	0	-9.029170126719096	0.6768404453833415	1.385762666378063	39.33175473989011	-0.8108725326359856	5.326950873558778	40.08808233135956	118.9515145123717	0	0	80.31415221309939	-8.164641357608257	7.204002951711167	26.36730022566102	98.73897590588392	0	0
7.719999999999923	-10.01223186272194	-1.834926086272402	20.83229939002058	0	0.9399999999999999	0	42.82081627046801	-11.13479776658829	-10.8186415897956	53.54681348917951	0.9345681993374954	0	0	0	42.82081627046801	-11.13479776658829	-10.8186415897956	53.54681348917951	0.9345681993374954	0	0	0	-9.15680228549588	0.7803970201714139	1.385746795037884	39.6171225117851	-0.5505141837777844	5.494115893809157	39.97442171186256	119.322116895497	0	0	80.84261283834645	-7.157972120503215	7.366115435296929	25.87170277691606	98.98464284493051	0	0
7.739999999999923	-10.3370099177699	-1.72760083491955	20.27186363648708	0	0.9399999999999999	0	42.82173602292649	-11.13312114990524	-10.81786673356419	53.54722313679593	0.9345753490371749	0	0	0	42.82173602292649	-11.13312114990524	-10.81786673356419	53.54722313679593	0.9345753490371749	0	0	0	-9.429104462193219	1.023356777099834	1.236641042070849	40.14666790230059	-0.3113695774906169	6.11851885063735	39.8811617712221	119.5845696443432	0	0	81.5476398424684	-6.512270430068701	7.152708581079519	25.38580789794538	99.19322157296183	0	0
7.759999999999923	-10.33428538779953	-1.731365315963796	20.2416250275514	0	0.9399999999999999	0	42.8222996072549	-11.13209916748039	-10.81739351172472	53.54747522030211	0.9345797487243478	0	0	0	42.8222996072549	-11.13209916748039	-10.81739351172472	53.54747522030211	0.9345797487243478	0	0	0	-9.427106646379579	1.012333482752116	1.274770352330623	40.15189721181068	-0.08125914026229057	5.866007084538902	39.78898291499415	119.7697807197048	0	0	81.49275309818645	-6.33255247971116	7.238384406740764	25.506363606203	99.36548461719806	0	0
7.779999999999922	-10.57018147527981	-1.649769945167033	19.80524220855759	0	0.9399999999999999	0	42.82327736468383	-11.1303194932179	-10.8165703702322	53.54791070446078	0.9345873493567569	0	0	0	42.82327736468383	-11.1303194932179	-10.8165703702322	53.54791070446078	0.9345873493567569	0	0	0	-9.624541490792362	1.187039181145217	1.187899146013047	40.5527315782742	0.1544906597624569	6.319345747388569	39.64556983545103	119.9915478296808	0	0	82.07092667814533	-5.618799344357766	7.210046048080395	25.03335527338464	99.54337162462282	0	0
7.799999999999922	-10.72894165759181	-1.595828683204414	19.42036945916823	0	0.9399999999999999	0	42.83155357935258	-11.11959801565989	-10.81095200976502	53.55266978619508	0.9346704110023918	0	0	0	42.83155357935258	-11.11959801565989	-10.81095200976502	53.55266978619508	0.9346704110023918	0	0	0	-9.759314929024013	1.284957849553423	1.236770455632038	40.8583041135653	0.3185518835981857	6.604590201716522	39.5334363929697	120.1403821619566	0	0	82.87831246701268	-2.926199944988127	8.361243487378772	23.51396605782812	99.35215744307406	0	0
7.819999999999921	-10.8948078765349	-1.528872978513431	19.13853982060387	0	0.9399999999999999	0	42.83224010447461	-11.11835820719569	-10.81037655451865	53.55297611089612	0.9346757573770053	0	0	0	42.83224010447461	-11.11835820719569	-10.81037655451865	53.55297611089612	0.9346757573770053	0	0	0	-9.894975479050091	1.405535658351063	1.230043725310086	41.14019246399192	0.4385956664688662	6.825442962728559	39.47326968742172	120.2812251343793	0	0	83.17449684972375	-2.124027998626278	8.457907882016054	23.19595279867823	99.40063088708341	0	0
7.839999999999921	-11.06417247289601	-1.474593590371864	18.85601067845971	0	0.9399999999999999	0	42.83292006538753	-11.11713122365564	-10.80980682416591	53.55327953656111	0.9346810531538943	0	0	0	42.83292006538753	-11.11713122365564	-10.80980682416591	53.55327953656111	0.9346810531538943	0	0	0	-10.03871462481025	1.515667732120079	1.216353610473274	41.42482160452514	0.5687354237509048	7.034072724985778	39.41793228884416	120.4649500204928	0	0	83.45270933729924	-1.360300569698895	8.599921321230223	22.80526632220888	99.32243829051761	0	0
